<svg width="93" height="37" viewBox="0 0 93 37" fill="none" xmlns="http://www.w3.org/2000/svg">
<path d="M17.4908 7.75C17.5428 7.75 17.5688 7.802 17.5688 7.906C17.5688 8.01 17.5428 8.062 17.4908 8.062C16.8841 8.062 16.3208 8.296 15.8008 8.764C15.2808 9.232 14.8561 9.908 14.5268 10.792L9.45681 23.974C9.43947 24.0433 9.34414 24.078 9.17081 24.078C9.01481 24.078 8.91947 24.0433 8.8848 23.974L2.3068 9.908C2.01214 9.284 1.7088 8.82467 1.3968 8.53C1.0848 8.218 0.703471 8.062 0.252805 8.062C0.200805 8.062 0.174805 8.01 0.174805 7.906C0.174805 7.802 0.200805 7.75 0.252805 7.75C0.478138 7.75 0.660138 7.75867 0.798805 7.776C0.954805 7.79333 1.1368 7.81067 1.3448 7.828C1.57014 7.828 1.8648 7.828 2.2288 7.828C3.0608 7.828 3.7368 7.828 4.2568 7.828C4.79414 7.81067 5.23614 7.79333 5.5828 7.776C5.94681 7.75867 6.26747 7.75 6.5448 7.75C6.5968 7.75 6.6228 7.802 6.6228 7.906C6.6228 8.01 6.5968 8.062 6.5448 8.062C5.8168 8.062 5.3228 8.244 5.0628 8.608C4.82014 8.972 4.86347 9.492 5.1928 10.168L10.2108 21.036L9.14481 22.83L13.8248 10.688C14.1195 9.908 14.1368 9.27533 13.8768 8.79C13.6168 8.30467 13.0448 8.062 12.1608 8.062C12.1088 8.062 12.0828 8.01 12.0828 7.906C12.0828 7.802 12.1088 7.75 12.1608 7.75C12.6288 7.75 13.0795 7.76733 13.5128 7.802C13.9461 7.81933 14.5095 7.828 15.2028 7.828C15.6881 7.828 16.0781 7.81933 16.3728 7.802C16.6848 7.76733 17.0575 7.75 17.4908 7.75ZM29.7656 24H18.4816C18.4296 24 18.4036 23.948 18.4036 23.844C18.4036 23.74 18.4296 23.688 18.4816 23.688C19.0536 23.688 19.4783 23.6447 19.7556 23.558C20.033 23.4713 20.215 23.298 20.3016 23.038C20.4056 22.778 20.4576 22.3967 20.4576 21.894V9.856C20.4576 9.35333 20.4056 8.98067 20.3016 8.738C20.215 8.478 20.033 8.30467 19.7556 8.218C19.4783 8.114 19.0536 8.062 18.4816 8.062C18.4296 8.062 18.4036 8.01 18.4036 7.906C18.4036 7.802 18.4296 7.75 18.4816 7.75H29.2976C29.471 7.75 29.5576 7.828 29.5576 7.984L29.6096 11.364C29.6096 11.3987 29.5663 11.4247 29.4796 11.442C29.393 11.442 29.3323 11.416 29.2976 11.364C29.107 10.376 28.7083 9.63933 28.1016 9.154C27.495 8.66867 26.6976 8.426 25.7096 8.426H24.6436C24.2103 8.426 23.8636 8.478 23.6036 8.582C23.361 8.66867 23.1876 8.82467 23.0836 9.05C22.9796 9.258 22.9276 9.544 22.9276 9.908V21.79C22.9276 22.154 22.971 22.4573 23.0576 22.7C23.1616 22.9253 23.3176 23.09 23.5256 23.194C23.7336 23.2807 24.0283 23.324 24.4096 23.324H25.6836C26.8623 23.324 27.8156 23.0467 28.5436 22.492C29.2716 21.92 29.7916 21.0793 30.1036 19.97C30.121 19.918 30.173 19.9007 30.2596 19.918C30.3636 19.9353 30.4156 19.9613 30.4156 19.996C30.3463 20.4813 30.2856 21.062 30.2336 21.738C30.1816 22.414 30.1556 23.038 30.1556 23.61C30.1556 23.87 30.0256 24 29.7656 24ZM28.3096 18.124C28.3096 17.396 28.067 16.8413 27.5816 16.46C27.0963 16.0787 26.3683 15.888 25.3976 15.888H21.7576V15.212H25.4236C26.3943 15.212 27.1136 15.0473 27.5816 14.718C28.0496 14.3887 28.2836 13.912 28.2836 13.288C28.2836 13.236 28.327 13.21 28.4136 13.21C28.5176 13.21 28.5696 13.236 28.5696 13.288C28.5696 13.8427 28.561 14.276 28.5436 14.588C28.5436 14.9 28.5436 15.2207 28.5436 15.55C28.5436 15.966 28.5523 16.382 28.5696 16.798C28.6043 17.1967 28.6216 17.6387 28.6216 18.124C28.6216 18.1587 28.5696 18.176 28.4656 18.176C28.3616 18.176 28.3096 18.1587 28.3096 18.124ZM36.8864 9.882V21.79C36.8864 22.2233 36.9297 22.5527 37.0164 22.778C37.1031 23.0033 37.2677 23.1507 37.5104 23.22C37.7531 23.2893 38.1084 23.324 38.5764 23.324H40.1364C41.3671 23.324 42.4071 22.9773 43.2564 22.284C44.1057 21.5907 44.6691 20.672 44.9464 19.528C44.9637 19.476 45.0157 19.4587 45.1024 19.476C45.1891 19.4933 45.2324 19.528 45.2324 19.58C45.1804 20.1173 45.1284 20.7673 45.0764 21.53C45.0244 22.2753 44.9984 22.9687 44.9984 23.61C44.9984 23.87 44.8684 24 44.6084 24H32.4404C32.4057 24 32.3884 23.948 32.3884 23.844C32.3884 23.74 32.4057 23.688 32.4404 23.688C32.9951 23.688 33.4111 23.6447 33.6884 23.558C33.9831 23.4713 34.1737 23.298 34.2604 23.038C34.3644 22.778 34.4164 22.3967 34.4164 21.894V9.856C34.4164 9.35333 34.3644 8.98067 34.2604 8.738C34.1737 8.478 33.9831 8.30467 33.6884 8.218C33.4111 8.114 32.9951 8.062 32.4404 8.062C32.4057 8.062 32.3884 8.01 32.3884 7.906C32.3884 7.802 32.4057 7.75 32.4404 7.75C32.8564 7.75 33.3417 7.76733 33.8964 7.802C34.4511 7.81933 35.0317 7.828 35.6384 7.828C36.2797 7.828 36.8691 7.81933 37.4064 7.802C37.9611 7.76733 38.4464 7.75 38.8624 7.75C38.9144 7.75 38.9404 7.802 38.9404 7.906C38.9404 8.01 38.9144 8.062 38.8624 8.062C38.3077 8.062 37.8831 8.114 37.5884 8.218C37.3111 8.30467 37.1204 8.478 37.0164 8.738C36.9297 8.998 36.8864 9.37933 36.8864 9.882ZM62.0767 7.75C62.1287 7.75 62.1547 7.802 62.1547 7.906C62.1547 8.01 62.1287 8.062 62.0767 8.062C61.4701 8.062 60.9067 8.296 60.3867 8.764C59.8667 9.232 59.4421 9.908 59.1127 10.792L54.0427 23.974C54.0254 24.0433 53.9301 24.078 53.7567 24.078C53.6007 24.078 53.5054 24.0433 53.4707 23.974L46.8927 9.908C46.5981 9.284 46.2947 8.82467 45.9827 8.53C45.6707 8.218 45.2894 8.062 44.8387 8.062C44.7867 8.062 44.7607 8.01 44.7607 7.906C44.7607 7.802 44.7867 7.75 44.8387 7.75C45.0641 7.75 45.2461 7.75867 45.3847 7.776C45.5407 7.79333 45.7227 7.81067 45.9307 7.828C46.1561 7.828 46.4507 7.828 46.8147 7.828C47.6467 7.828 48.3227 7.828 48.8427 7.828C49.3801 7.81067 49.8221 7.79333 50.1687 7.776C50.5327 7.75867 50.8534 7.75 51.1307 7.75C51.1827 7.75 51.2087 7.802 51.2087 7.906C51.2087 8.01 51.1827 8.062 51.1307 8.062C50.4027 8.062 49.9087 8.244 49.6487 8.608C49.4061 8.972 49.4494 9.492 49.7787 10.168L54.7967 21.036L53.7307 22.83L58.4107 10.688C58.7054 9.908 58.7227 9.27533 58.4627 8.79C58.2027 8.30467 57.6307 8.062 56.7467 8.062C56.6947 8.062 56.6687 8.01 56.6687 7.906C56.6687 7.802 56.6947 7.75 56.7467 7.75C57.2147 7.75 57.6654 7.76733 58.0987 7.802C58.5321 7.81933 59.0954 7.828 59.7887 7.828C60.2741 7.828 60.6641 7.81933 60.9587 7.802C61.2707 7.76733 61.6434 7.75 62.0767 7.75ZM74.3516 24H63.0676C63.0156 24 62.9896 23.948 62.9896 23.844C62.9896 23.74 63.0156 23.688 63.0676 23.688C63.6396 23.688 64.0643 23.6447 64.3416 23.558C64.6189 23.4713 64.8009 23.298 64.8876 23.038C64.9916 22.778 65.0436 22.3967 65.0436 21.894V9.856C65.0436 9.35333 64.9916 8.98067 64.8876 8.738C64.8009 8.478 64.6189 8.30467 64.3416 8.218C64.0643 8.114 63.6396 8.062 63.0676 8.062C63.0156 8.062 62.9896 8.01 62.9896 7.906C62.9896 7.802 63.0156 7.75 63.0676 7.75H73.8836C74.0569 7.75 74.1436 7.828 74.1436 7.984L74.1956 11.364C74.1956 11.3987 74.1523 11.4247 74.0656 11.442C73.9789 11.442 73.9183 11.416 73.8836 11.364C73.6929 10.376 73.2943 9.63933 72.6876 9.154C72.0809 8.66867 71.2836 8.426 70.2956 8.426H69.2296C68.7963 8.426 68.4496 8.478 68.1896 8.582C67.9469 8.66867 67.7736 8.82467 67.6696 9.05C67.5656 9.258 67.5136 9.544 67.5136 9.908V21.79C67.5136 22.154 67.5569 22.4573 67.6436 22.7C67.7476 22.9253 67.9036 23.09 68.1116 23.194C68.3196 23.2807 68.6143 23.324 68.9956 23.324H70.2696C71.4483 23.324 72.4016 23.0467 73.1296 22.492C73.8576 21.92 74.3776 21.0793 74.6896 19.97C74.7069 19.918 74.7589 19.9007 74.8456 19.918C74.9496 19.9353 75.0016 19.9613 75.0016 19.996C74.9323 20.4813 74.8716 21.062 74.8196 21.738C74.7676 22.414 74.7416 23.038 74.7416 23.61C74.7416 23.87 74.6116 24 74.3516 24ZM72.8956 18.124C72.8956 17.396 72.6529 16.8413 72.1676 16.46C71.6823 16.0787 70.9543 15.888 69.9836 15.888H66.3436V15.212H70.0096C70.9803 15.212 71.6996 15.0473 72.1676 14.718C72.6356 14.3887 72.8696 13.912 72.8696 13.288C72.8696 13.236 72.9129 13.21 72.9996 13.21C73.1036 13.21 73.1556 13.236 73.1556 13.288C73.1556 13.8427 73.1469 14.276 73.1296 14.588C73.1296 14.9 73.1296 15.2207 73.1296 15.55C73.1296 15.966 73.1383 16.382 73.1556 16.798C73.1903 17.1967 73.2076 17.6387 73.2076 18.124C73.2076 18.1587 73.1556 18.176 73.0516 18.176C72.9476 18.176 72.8956 18.1587 72.8956 18.124ZM81.6543 8.296C80.597 8.296 79.7303 8.62533 79.0543 9.284C78.3957 9.94267 77.8757 10.9133 77.4943 12.196C77.4943 12.248 77.4423 12.274 77.3383 12.274C77.2517 12.2567 77.2083 12.2307 77.2083 12.196C77.243 11.9533 77.2777 11.624 77.3123 11.208C77.347 10.7747 77.3817 10.3067 77.4163 9.804C77.4683 9.30133 77.503 8.816 77.5203 8.348C77.555 7.86267 77.5723 7.47267 77.5723 7.178C77.5723 7.09133 77.6157 7.048 77.7023 7.048C77.8063 7.048 77.8583 7.09133 77.8583 7.178C77.8583 7.35133 77.945 7.48133 78.1183 7.568C78.309 7.63733 78.517 7.68933 78.7423 7.724C78.9677 7.74133 79.1583 7.75 79.3143 7.75C80.805 7.802 82.547 7.828 84.5403 7.828C85.771 7.828 86.7417 7.81933 87.4523 7.802C88.1803 7.76733 88.8823 7.75 89.5583 7.75C90.1823 7.75 90.6503 7.71533 90.9623 7.646C91.2917 7.55933 91.4997 7.37733 91.5863 7.1C91.6037 7.03067 91.6557 6.996 91.7423 6.996C91.829 6.996 91.8723 7.03067 91.8723 7.1C91.855 7.37733 91.829 7.75867 91.7943 8.244C91.7597 8.712 91.7337 9.21467 91.7163 9.752C91.699 10.272 91.6817 10.7573 91.6643 11.208C91.647 11.6413 91.6383 11.9707 91.6383 12.196C91.6383 12.2307 91.5863 12.248 91.4823 12.248C91.3957 12.248 91.3437 12.2307 91.3263 12.196C91.1357 10.8267 90.7197 9.83867 90.0783 9.232C89.437 8.608 88.579 8.296 87.5043 8.296C87.0363 8.296 86.681 8.33933 86.4383 8.426C86.1957 8.51267 86.031 8.67733 85.9443 8.92C85.8577 9.14533 85.8143 9.47467 85.8143 9.908V21.894C85.8143 22.3967 85.8663 22.778 85.9703 23.038C86.0917 23.298 86.3083 23.4713 86.6203 23.558C86.9497 23.6447 87.4437 23.688 88.1023 23.688C88.1543 23.688 88.1803 23.74 88.1803 23.844C88.1803 23.948 88.1543 24 88.1023 24C87.6343 24 87.097 23.9913 86.4903 23.974C85.901 23.9567 85.251 23.948 84.5403 23.948C83.8643 23.948 83.2317 23.9567 82.6423 23.974C82.053 23.9913 81.507 24 81.0043 24C80.9697 24 80.9523 23.948 80.9523 23.844C80.9523 23.74 80.9697 23.688 81.0043 23.688C81.663 23.688 82.157 23.6447 82.4863 23.558C82.8157 23.4713 83.0323 23.298 83.1363 23.038C83.2577 22.778 83.3183 22.3967 83.3183 21.894V9.856C83.3183 9.42267 83.275 9.102 83.1883 8.894C83.119 8.66867 82.963 8.51267 82.7203 8.426C82.4777 8.33933 82.1223 8.296 81.6543 8.296Z" fill="#242B21"/>
<line x1="17.75" y1="34.25" x2="0.25" y2="34.25" stroke="#6A6F61" stroke-width="0.5" stroke-linecap="round"/>
<path d="M24.2393 32.8701V34.1787H24.9668C25.1556 34.1787 25.2817 34.1502 25.3452 34.0933C25.4299 34.0184 25.4771 33.8866 25.4868 33.6978H25.5771V34.8501H25.4868C25.464 34.689 25.4412 34.5856 25.4185 34.54C25.3892 34.4831 25.3411 34.4383 25.2744 34.4058C25.2077 34.3732 25.1051 34.3569 24.9668 34.3569H24.2393V35.4482C24.2393 35.5947 24.2458 35.6842 24.2588 35.7168C24.2718 35.7477 24.2946 35.7729 24.3271 35.7925C24.3597 35.8104 24.4215 35.8193 24.5127 35.8193H25.0742C25.2614 35.8193 25.3973 35.8063 25.4819 35.7803C25.5666 35.7542 25.6479 35.703 25.7261 35.6265C25.827 35.5256 25.9303 35.3734 26.0361 35.1699H26.1338L25.8481 36H23.2969V35.9097H23.4141C23.4922 35.9097 23.5662 35.891 23.6362 35.8535C23.6883 35.8275 23.7233 35.7884 23.7412 35.7363C23.7607 35.6842 23.7705 35.5776 23.7705 35.4165V33.2656C23.7705 33.0557 23.7493 32.9263 23.707 32.8774C23.6484 32.8123 23.5508 32.7798 23.4141 32.7798H23.2969V32.6895H25.8481L25.8848 33.4146H25.7896C25.7554 33.2404 25.7171 33.1208 25.6748 33.0557C25.6341 32.9906 25.5731 32.9409 25.4917 32.9067C25.4266 32.8823 25.3118 32.8701 25.1475 32.8701H24.2393ZM28.5435 32.6138V33.7588H28.4531C28.4238 33.5391 28.3709 33.3641 28.2944 33.2339C28.2196 33.1037 28.1121 33.0003 27.9722 32.9238C27.8322 32.8473 27.6873 32.8091 27.5376 32.8091C27.3683 32.8091 27.2284 32.8612 27.1177 32.9653C27.007 33.0679 26.9517 33.1851 26.9517 33.3169C26.9517 33.4178 26.9867 33.5098 27.0566 33.5928C27.1576 33.7148 27.3976 33.8776 27.7769 34.0811C28.0861 34.2471 28.2969 34.3748 28.4092 34.4644C28.5231 34.5522 28.6102 34.6564 28.6704 34.7769C28.7323 34.8973 28.7632 35.0234 28.7632 35.1553C28.7632 35.4059 28.6655 35.6224 28.4702 35.8047C28.2765 35.9854 28.0267 36.0757 27.7207 36.0757C27.6247 36.0757 27.5343 36.0684 27.4497 36.0537C27.3993 36.0456 27.2943 36.0163 27.1348 35.9658C26.9769 35.9137 26.8768 35.8877 26.8345 35.8877C26.7938 35.8877 26.7612 35.8999 26.7368 35.9243C26.714 35.9487 26.6969 35.9992 26.6855 36.0757H26.5952V34.9404H26.6855C26.7279 35.1781 26.7848 35.3563 26.8564 35.4751C26.9281 35.5923 27.0371 35.6899 27.1836 35.7681C27.3317 35.8462 27.4937 35.8853 27.6694 35.8853C27.8729 35.8853 28.0332 35.8315 28.1504 35.7241C28.2692 35.6167 28.3286 35.4897 28.3286 35.3433C28.3286 35.2619 28.3058 35.1797 28.2603 35.0967C28.2163 35.0137 28.1471 34.9364 28.0527 34.8647C27.9893 34.8159 27.8159 34.7126 27.5327 34.5547C27.2495 34.3952 27.0477 34.2682 26.9272 34.1738C26.8084 34.0794 26.7181 33.9753 26.6562 33.8613C26.5944 33.7474 26.5635 33.6221 26.5635 33.4854C26.5635 33.2477 26.6546 33.0435 26.8369 32.8726C27.0192 32.7 27.2511 32.6138 27.5327 32.6138C27.7085 32.6138 27.8949 32.6569 28.0918 32.7432C28.1829 32.7839 28.2472 32.8042 28.2847 32.8042C28.327 32.8042 28.3612 32.792 28.3872 32.7676C28.4149 32.7415 28.4368 32.6903 28.4531 32.6138H28.5435ZM31.9272 32.6895L31.9639 33.4658H31.8711C31.8532 33.3291 31.8288 33.2314 31.7979 33.1729C31.7474 33.0785 31.6799 33.0093 31.5952 32.9653C31.5122 32.9198 31.4023 32.897 31.2656 32.897H30.7993V35.4263C30.7993 35.6297 30.8213 35.7567 30.8652 35.8071C30.9271 35.8755 31.0223 35.9097 31.1509 35.9097H31.2656V36H29.8618V35.9097H29.979C30.119 35.9097 30.2183 35.8674 30.2769 35.7827C30.3127 35.7306 30.3306 35.6118 30.3306 35.4263V32.897H29.9326C29.778 32.897 29.6681 32.9084 29.603 32.9312C29.5184 32.9621 29.446 33.0215 29.3857 33.1094C29.3255 33.1973 29.2897 33.3161 29.2783 33.4658H29.1855L29.2246 32.6895H31.9272ZM32.3447 35.5264C32.4212 35.5264 32.4855 35.5532 32.5376 35.6069C32.5897 35.659 32.6157 35.7225 32.6157 35.7974C32.6157 35.8722 32.5889 35.9365 32.5352 35.9902C32.4831 36.0423 32.4196 36.0684 32.3447 36.0684C32.2699 36.0684 32.2056 36.0423 32.1519 35.9902C32.0998 35.9365 32.0737 35.8722 32.0737 35.7974C32.0737 35.7209 32.0998 35.6566 32.1519 35.6045C32.2056 35.5524 32.2699 35.5264 32.3447 35.5264ZM36.2656 36L34.9863 33.2144V35.4263C34.9863 35.6297 35.0083 35.7567 35.0522 35.8071C35.1125 35.8755 35.2077 35.9097 35.3379 35.9097H35.4551V36H34.3027V35.9097H34.4199C34.5599 35.9097 34.6592 35.8674 34.7178 35.7827C34.7536 35.7306 34.7715 35.6118 34.7715 35.4263V33.2632C34.7715 33.1167 34.7552 33.0109 34.7227 32.9458C34.6999 32.8986 34.6576 32.8595 34.5957 32.8286C34.5355 32.7961 34.4378 32.7798 34.3027 32.7798V32.6895H35.2402L36.4414 35.2798L37.623 32.6895H38.5605V32.7798H38.4458C38.3042 32.7798 38.2041 32.8221 38.1455 32.9067C38.1097 32.9588 38.0918 33.0776 38.0918 33.2632V35.4263C38.0918 35.6297 38.1146 35.7567 38.1602 35.8071C38.2204 35.8755 38.3156 35.9097 38.4458 35.9097H38.5605V36H37.1543V35.9097H37.2715C37.4131 35.9097 37.5124 35.8674 37.5693 35.7827C37.6051 35.7306 37.623 35.6118 37.623 35.4263V33.2144L36.3462 36H36.2656ZM40.7139 36L39.4346 33.2144V35.4263C39.4346 35.6297 39.4565 35.7567 39.5005 35.8071C39.5607 35.8755 39.6559 35.9097 39.7861 35.9097H39.9033V36H38.751V35.9097H38.8682C39.0081 35.9097 39.1074 35.8674 39.166 35.7827C39.2018 35.7306 39.2197 35.6118 39.2197 35.4263V33.2632C39.2197 33.1167 39.2035 33.0109 39.1709 32.9458C39.1481 32.8986 39.1058 32.8595 39.0439 32.8286C38.9837 32.7961 38.8861 32.7798 38.751 32.7798V32.6895H39.6885L40.8896 35.2798L42.0713 32.6895H43.0088V32.7798H42.894C42.7524 32.7798 42.6523 32.8221 42.5938 32.9067C42.5579 32.9588 42.54 33.0776 42.54 33.2632V35.4263C42.54 35.6297 42.5628 35.7567 42.6084 35.8071C42.6686 35.8755 42.7638 35.9097 42.894 35.9097H43.0088V36H41.6025V35.9097H41.7197C41.8613 35.9097 41.9606 35.8674 42.0176 35.7827C42.0534 35.7306 42.0713 35.6118 42.0713 35.4263V33.2144L40.7944 36H40.7139ZM45.1572 34.1665L45.8677 35.2261C46.0646 35.519 46.2103 35.7046 46.3047 35.7827C46.4007 35.8592 46.522 35.9015 46.6685 35.9097V36H45.2476V35.9097C45.342 35.908 45.4119 35.8983 45.4575 35.8804C45.4917 35.8657 45.5194 35.8438 45.5405 35.8145C45.5633 35.7835 45.5747 35.7526 45.5747 35.7217C45.5747 35.6842 45.5674 35.6468 45.5527 35.6094C45.5413 35.5817 45.4966 35.5101 45.4185 35.3945L44.8569 34.5449L44.1636 35.4336C44.0903 35.528 44.0464 35.5915 44.0317 35.624C44.0171 35.6549 44.0098 35.6875 44.0098 35.7217C44.0098 35.7738 44.0317 35.8169 44.0757 35.8511C44.1196 35.8853 44.2035 35.9048 44.3271 35.9097V36H43.1528V35.9097C43.2358 35.9015 43.3075 35.8844 43.3677 35.8584C43.4686 35.8161 43.5646 35.7591 43.6558 35.6875C43.7469 35.6159 43.8511 35.506 43.9683 35.3579L44.7495 34.3716L44.0977 33.417C43.9202 33.1582 43.7697 32.9889 43.646 32.9092C43.5223 32.8278 43.3799 32.7847 43.2188 32.7798V32.6895H44.7495V32.7798C44.6193 32.7847 44.5298 32.8058 44.481 32.8433C44.4338 32.8807 44.4102 32.9222 44.4102 32.9678C44.4102 33.028 44.4492 33.1159 44.5273 33.2314L45.0352 33.9907L45.6235 33.2461C45.6919 33.1582 45.7334 33.098 45.748 33.0654C45.7643 33.0329 45.7725 32.9995 45.7725 32.9653C45.7725 32.9312 45.7627 32.901 45.7432 32.875C45.7188 32.8408 45.6878 32.8172 45.6504 32.8042C45.613 32.7896 45.5356 32.7814 45.4185 32.7798V32.6895H46.5928V32.7798C46.5 32.7847 46.4243 32.7993 46.3657 32.8237C46.2778 32.8612 46.1973 32.9116 46.124 32.9751C46.0508 33.0386 45.9474 33.1558 45.814 33.3267L45.1572 34.1665ZM48.2725 35.9097V36H46.854V35.9097H46.9712C47.1079 35.9097 47.2072 35.8698 47.269 35.79C47.3081 35.738 47.3276 35.6126 47.3276 35.4141V33.2754C47.3276 33.1077 47.3171 32.9971 47.2959 32.9434C47.2796 32.9027 47.2463 32.8677 47.1958 32.8384C47.1242 32.7993 47.0493 32.7798 46.9712 32.7798H46.854V32.6895H48.2725V32.7798H48.1528C48.0177 32.7798 47.9193 32.8197 47.8574 32.8994C47.8167 32.9515 47.7964 33.0768 47.7964 33.2754V35.4141C47.7964 35.5817 47.807 35.6924 47.8281 35.7461C47.8444 35.7868 47.8786 35.8218 47.9307 35.8511C48.0007 35.8901 48.0747 35.9097 48.1528 35.9097H48.2725ZM51.9443 32.6895V32.7798C51.8271 32.8009 51.7384 32.8384 51.6782 32.8921C51.592 32.9718 51.5155 33.0939 51.4487 33.2583L50.2939 36.0757H50.2036L48.9634 33.2217C48.8999 33.0752 48.8551 32.9857 48.8291 32.9531C48.7884 32.9027 48.738 32.8636 48.6777 32.8359C48.6191 32.8066 48.5394 32.7879 48.4385 32.7798V32.6895H49.791V32.7798C49.638 32.7944 49.5387 32.8205 49.4932 32.8579C49.4476 32.8953 49.4248 32.9434 49.4248 33.002C49.4248 33.0833 49.4622 33.2103 49.5371 33.3828L50.3794 35.3237L51.1606 33.4072C51.2371 33.2184 51.2754 33.0874 51.2754 33.0142C51.2754 32.967 51.2518 32.9222 51.2046 32.8799C51.1574 32.8359 51.0776 32.805 50.9653 32.7871C50.9572 32.7855 50.9434 32.783 50.9238 32.7798V32.6895H51.9443ZM54.0024 34.0273C54.0741 34.0273 54.1343 34.0526 54.1831 34.103C54.2336 34.1519 54.2588 34.2121 54.2588 34.2837C54.2588 34.3537 54.2336 34.4139 54.1831 34.4644C54.1326 34.5148 54.0724 34.54 54.0024 34.54C53.9325 34.54 53.8722 34.5148 53.8218 34.4644C53.7713 34.4139 53.7461 34.3537 53.7461 34.2837C53.7461 34.2121 53.7705 34.1519 53.8193 34.103C53.8698 34.0526 53.9308 34.0273 54.0024 34.0273ZM57.1104 34.4497V35.4141C57.1104 35.6224 57.1331 35.7518 57.1787 35.8022C57.2406 35.8739 57.3341 35.9097 57.4595 35.9097H57.5864V36H56.168V35.9097H56.2925C56.4325 35.9097 56.5326 35.8641 56.5928 35.7729C56.6253 35.7225 56.6416 35.6029 56.6416 35.4141V33.2754C56.6416 33.0671 56.6196 32.9377 56.5757 32.8872C56.5122 32.8156 56.4178 32.7798 56.2925 32.7798H56.168V32.6895H57.3813C57.6776 32.6895 57.9111 32.7204 58.082 32.7822C58.2529 32.8424 58.397 32.945 58.5142 33.0898C58.6313 33.2347 58.6899 33.4064 58.6899 33.605C58.6899 33.8752 58.6004 34.0949 58.4214 34.2642C58.244 34.4334 57.9925 34.5181 57.667 34.5181C57.5872 34.5181 57.501 34.5124 57.4082 34.501C57.3154 34.4896 57.2161 34.4725 57.1104 34.4497ZM57.1104 34.3105C57.1966 34.3268 57.2731 34.339 57.3398 34.3472C57.4066 34.3553 57.4635 34.3594 57.5107 34.3594C57.68 34.3594 57.8257 34.2943 57.9478 34.1641C58.0715 34.0322 58.1333 33.8621 58.1333 33.6538C58.1333 33.5106 58.104 33.3779 58.0454 33.2559C57.9868 33.1322 57.9038 33.0402 57.7964 32.98C57.689 32.9181 57.5669 32.8872 57.4302 32.8872C57.3472 32.8872 57.2406 32.9027 57.1104 32.9336V34.3105ZM60.6968 34.8916H59.415L59.1904 35.4141C59.1351 35.5426 59.1074 35.6387 59.1074 35.7021C59.1074 35.7526 59.131 35.7974 59.1782 35.8364C59.2271 35.8739 59.3312 35.8983 59.4907 35.9097V36H58.4482V35.9097C58.5866 35.8853 58.6761 35.8535 58.7168 35.8145C58.7998 35.7363 58.8918 35.5776 58.9927 35.3384L60.1572 32.6138H60.2427L61.395 35.3677C61.4878 35.589 61.5716 35.7331 61.6465 35.7998C61.723 35.8649 61.8288 35.9015 61.9639 35.9097V36H60.6577V35.9097C60.7896 35.9032 60.8783 35.8812 60.9238 35.8438C60.971 35.8063 60.9946 35.7607 60.9946 35.707C60.9946 35.6354 60.9621 35.5223 60.897 35.3677L60.6968 34.8916ZM60.6284 34.7109L60.0669 33.373L59.4907 34.7109H60.6284ZM65.4014 36H64.5176L63.397 34.4521C63.314 34.4554 63.2464 34.457 63.1943 34.457C63.1732 34.457 63.1504 34.457 63.126 34.457C63.1016 34.4554 63.0763 34.4538 63.0503 34.4521V35.4141C63.0503 35.6224 63.0731 35.7518 63.1187 35.8022C63.1805 35.8739 63.2733 35.9097 63.397 35.9097H63.5264V36H62.1079V35.9097H62.2324C62.3724 35.9097 62.4725 35.8641 62.5327 35.7729C62.5669 35.7225 62.584 35.6029 62.584 35.4141V33.2754C62.584 33.0671 62.5612 32.9377 62.5156 32.8872C62.4521 32.8156 62.3577 32.7798 62.2324 32.7798H62.1079V32.6895H63.314C63.6655 32.6895 63.9243 32.7155 64.0903 32.7676C64.258 32.818 64.3996 32.9124 64.5151 33.0508C64.6323 33.1875 64.6909 33.3511 64.6909 33.5415C64.6909 33.745 64.6242 33.9215 64.4907 34.0713C64.3589 34.221 64.1538 34.3268 63.8755 34.3887L64.5591 35.3384C64.7153 35.5565 64.8496 35.7013 64.9619 35.7729C65.0742 35.8446 65.2207 35.8901 65.4014 35.9097V36ZM63.0503 34.2983C63.0812 34.2983 63.1081 34.2992 63.1309 34.3008C63.1536 34.3008 63.1724 34.3008 63.187 34.3008C63.5028 34.3008 63.7404 34.2324 63.8999 34.0957C64.061 33.959 64.1416 33.7848 64.1416 33.5732C64.1416 33.3665 64.0765 33.1989 63.9463 33.0703C63.8177 32.9401 63.6468 32.875 63.4336 32.875C63.3392 32.875 63.2114 32.8905 63.0503 32.9214V34.2983ZM66.9004 35.9097V36H65.4819V35.9097H65.5991C65.7358 35.9097 65.8351 35.8698 65.897 35.79C65.936 35.738 65.9556 35.6126 65.9556 35.4141V33.2754C65.9556 33.1077 65.945 32.9971 65.9238 32.9434C65.9076 32.9027 65.8742 32.8677 65.8237 32.8384C65.7521 32.7993 65.6772 32.7798 65.5991 32.7798H65.4819V32.6895H66.9004V32.7798H66.7808C66.6457 32.7798 66.5472 32.8197 66.4854 32.8994C66.4447 32.9515 66.4243 33.0768 66.4243 33.2754V35.4141C66.4243 35.5817 66.4349 35.6924 66.4561 35.7461C66.4723 35.7868 66.5065 35.8218 66.5586 35.8511C66.6286 35.8901 66.7026 35.9097 66.7808 35.9097H66.9004ZM69.3149 32.6138V33.7588H69.2246C69.1953 33.5391 69.1424 33.3641 69.0659 33.2339C68.991 33.1037 68.8836 33.0003 68.7437 32.9238C68.6037 32.8473 68.4588 32.8091 68.3091 32.8091C68.1398 32.8091 67.9998 32.8612 67.8892 32.9653C67.7785 33.0679 67.7231 33.1851 67.7231 33.3169C67.7231 33.4178 67.7581 33.5098 67.8281 33.5928C67.929 33.7148 68.1691 33.8776 68.5483 34.0811C68.8576 34.2471 69.0684 34.3748 69.1807 34.4644C69.2946 34.5522 69.3817 34.6564 69.4419 34.7769C69.5037 34.8973 69.5347 35.0234 69.5347 35.1553C69.5347 35.4059 69.437 35.6224 69.2417 35.8047C69.048 35.9854 68.7982 36.0757 68.4922 36.0757C68.3962 36.0757 68.3058 36.0684 68.2212 36.0537C68.1707 36.0456 68.0658 36.0163 67.9062 35.9658C67.7484 35.9137 67.6483 35.8877 67.606 35.8877C67.5653 35.8877 67.5327 35.8999 67.5083 35.9243C67.4855 35.9487 67.4684 35.9992 67.457 36.0757H67.3667V34.9404H67.457C67.4993 35.1781 67.5563 35.3563 67.6279 35.4751C67.6995 35.5923 67.8086 35.6899 67.9551 35.7681C68.1032 35.8462 68.2651 35.8853 68.4409 35.8853C68.6444 35.8853 68.8047 35.8315 68.9219 35.7241C69.0407 35.6167 69.1001 35.4897 69.1001 35.3433C69.1001 35.2619 69.0773 35.1797 69.0317 35.0967C68.9878 35.0137 68.9186 34.9364 68.8242 34.8647C68.7607 34.8159 68.5874 34.7126 68.3042 34.5547C68.021 34.3952 67.8192 34.2682 67.6987 34.1738C67.5799 34.0794 67.4896 33.9753 67.4277 33.8613C67.3659 33.7474 67.335 33.6221 67.335 33.4854C67.335 33.2477 67.4261 33.0435 67.6084 32.8726C67.7907 32.7 68.0226 32.6138 68.3042 32.6138C68.48 32.6138 68.6663 32.6569 68.8633 32.7432C68.9544 32.7839 69.0187 32.8042 69.0562 32.8042C69.0985 32.8042 69.1326 32.792 69.1587 32.7676C69.1864 32.7415 69.2083 32.6903 69.2246 32.6138H69.3149Z" fill="#242B21"/>
<line x1="92.75" y1="34.25" x2="75.25" y2="34.25" stroke="#6A6F61" stroke-width="0.5" stroke-linecap="round"/>
</svg>
